<svg version="1.1" id="Layer_1" xmlns="http://www.w3.org/2000/svg" xmlns:xlink="http://www.w3.org/1999/xlink" x="0px" y="0px"
	 width="100%" viewBox="0 0 200 200" enable-background="new 0 0 200 200" xml:space="preserve">
<path fill="#153447" opacity="1.000000" stroke="none" 
	d="
M115.000000,201.000000 
	C76.690323,201.000000 38.880650,201.000000 1.070972,201.000000 
	C1.047314,200.857101 1.002927,200.714188 1.002920,200.571289 
	C0.999952,134.112869 1.000000,67.654457 1.000000,1.098018 
	C67.559509,1.098018 134.119202,1.098018 200.839447,1.098018 
	C200.839447,67.666359 200.839447,134.333145 200.839447,201.000000 
	C172.464310,201.000000 143.982162,201.000000 115.000000,201.000000 
M68.102264,92.252693 
	C58.932602,75.421036 61.648434,56.785400 75.086891,44.325130 
	C88.340599,32.036167 106.673889,30.914299 123.100220,40.945900 
	C125.277855,42.275787 128.653549,41.643917 131.474396,41.920570 
	C118.621391,25.117575 90.811226,23.651712 73.387215,37.459755 
	C54.220482,52.648861 50.666153,80.324623 65.407364,99.595016 
	C80.232681,118.975388 107.884995,123.054832 127.439964,108.704376 
	C147.676025,93.854111 149.861053,67.125740 140.333923,52.252930 
	C139.953186,52.566395 139.527237,52.827240 139.215790,53.187168 
	C135.461563,57.525867 138.246643,61.986698 138.952393,66.432236 
	C141.811829,84.444008 131.825317,101.763000 114.767441,108.458954 
	C97.812622,115.114449 79.322662,108.892616 68.102264,92.252693 
M101.840881,74.302505 
	C92.904594,80.283333 83.968300,86.264160 74.252159,92.766922 
	C83.356178,96.742569 91.658257,100.409409 100.014977,103.947174 
	C100.771294,104.267349 102.078720,104.058121 102.794403,103.585846 
	C113.268272,96.674171 123.684982,89.675888 134.869354,82.193794 
	C127.238419,78.894524 120.251846,76.295914 113.686836,72.885719 
	C109.374908,70.645882 105.947083,70.648079 101.840881,74.302505 
M72.625107,83.996162 
	C72.754677,85.948685 72.884254,87.901199 73.072243,90.734047 
	C81.679131,84.985222 89.352646,79.120712 97.714325,74.502052 
	C104.759277,70.610703 107.616341,65.922256 106.285172,57.842865 
	C105.255371,51.592545 105.639999,45.109188 105.364151,37.901867 
	C99.282501,41.942299 94.115692,45.249931 89.083450,48.750992 
	C83.273949,52.792805 75.120567,55.858940 72.514740,61.457211 
	C69.761276,67.372665 72.342796,75.771393 72.625107,83.996162 
M62.253731,146.743790 
	C57.928333,143.894516 56.198547,139.111053 58.277725,134.817902 
	C61.135880,128.916290 66.211349,130.966461 72.500481,132.095840 
	C71.343178,129.607254 70.980194,127.155167 69.894089,126.776352 
	C64.794128,124.997566 59.700527,125.272087 55.439564,129.124603 
	C51.842968,132.376450 50.623127,139.934845 52.828491,144.968140 
	C55.031590,149.996231 59.226299,151.983597 64.457489,151.858612 
	C67.207695,151.792923 69.946365,151.243881 72.689621,150.913162 
	C72.689621,146.296783 72.689621,142.233109 72.689621,137.980316 
	C70.732018,138.071411 69.122322,138.146332 67.029533,138.243713 
	C67.029533,141.256744 67.029533,144.012070 67.029533,146.908646 
	C65.382301,146.908646 64.234009,146.908646 62.253731,146.743790 
M137.964844,146.253647 
	C135.354019,139.614700 132.743179,132.975739 129.680878,125.188774 
	C127.264503,126.469688 124.330879,127.014847 123.591454,128.590027 
	C120.229958,135.750854 117.486328,143.201752 114.492378,150.617813 
	C119.746086,152.891846 121.304123,150.126617 122.112579,146.185181 
	C125.362198,146.185181 128.498367,146.185181 131.821869,146.185181 
	C132.877228,149.895416 134.342728,153.162659 139.509979,150.686737 
	C139.039688,149.396973 138.596817,148.182480 137.964844,146.253647 
M131.260666,63.386684 
	C134.879288,56.163136 138.497910,48.939587 142.618088,40.714817 
	C133.125137,43.274475 124.662422,45.556351 115.659607,47.983852 
	C124.179916,54.138271 124.178993,54.138721 128.848969,63.751698 
	C129.061401,64.188980 129.316895,64.605347 129.552322,65.031448 
	C130.034424,64.683540 130.516541,64.335632 131.260666,63.386684 
M93.213280,147.582336 
	C96.343460,140.033463 93.802750,133.361816 87.323822,132.117233 
	C82.769302,131.242294 78.565308,133.464539 76.811279,137.674164 
	C74.936058,142.174637 76.305336,147.573471 79.990150,150.207932 
	C84.013634,153.084518 88.408104,152.419571 93.213280,147.582336 
M102.423355,136.965729 
	C101.001068,131.676147 100.964958,131.654999 95.383812,133.344254 
	C97.535988,138.728729 99.559540,144.122452 101.850258,149.400192 
	C103.259361,152.646744 106.433380,152.402298 107.635498,150.087601 
	C110.461624,144.645828 112.363991,138.724304 114.807007,132.577103 
	C105.097908,131.385513 108.899178,140.327454 104.646553,143.309174 
	C103.955208,141.326416 103.325409,139.520157 102.423355,136.965729 
M147.906540,141.446945 
	C147.906540,136.528091 147.906540,131.609253 147.906540,126.445221 
	C145.813934,126.445221 144.256409,126.445221 142.495270,126.445221 
	C142.495270,134.831680 142.495270,142.960617 142.495270,151.458008 
	C144.458084,151.355682 146.031387,151.273651 147.906540,151.175888 
	C147.906540,147.988754 147.906540,145.203079 147.906540,141.446945 
z"/>
<path fill="#F40962" opacity="1.000000" stroke="none" 
	d="
M68.293106,92.568672 
	C79.322662,108.892616 97.812622,115.114449 114.767441,108.458954 
	C131.825317,101.763000 141.811829,84.444008 138.952393,66.432236 
	C138.246643,61.986698 135.461563,57.525867 139.215790,53.187168 
	C139.527237,52.827240 139.953186,52.566395 140.333923,52.252930 
	C149.861053,67.125740 147.676025,93.854111 127.439964,108.704376 
	C107.884995,123.054832 80.232681,118.975388 65.407364,99.595016 
	C50.666153,80.324623 54.220482,52.648861 73.387215,37.459755 
	C90.811226,23.651712 118.621391,25.117575 131.474396,41.920570 
	C128.653549,41.643917 125.277855,42.275787 123.100220,40.945900 
	C106.673889,30.914299 88.340599,32.036167 75.086891,44.325130 
	C61.648434,56.785400 58.932602,75.421036 68.293106,92.568672 
z"/>
<path fill="#FB0863" opacity="1.000000" stroke="none" 
	d="
M102.154022,74.105286 
	C105.947083,70.648079 109.374908,70.645882 113.686836,72.885719 
	C120.251846,76.295914 127.238419,78.894524 134.869354,82.193794 
	C123.684982,89.675888 113.268272,96.674171 102.794403,103.585846 
	C102.078720,104.058121 100.771294,104.267349 100.014977,103.947174 
	C91.658257,100.409409 83.356178,96.742569 74.252159,92.766922 
	C83.968300,86.264160 92.904594,80.283333 102.154022,74.105286 
z"/>
<path fill="#E70B60" opacity="1.000000" stroke="none" 
	d="
M72.609467,83.540756 
	C72.342796,75.771393 69.761276,67.372665 72.514740,61.457211 
	C75.120567,55.858940 83.273949,52.792805 89.083450,48.750992 
	C94.115692,45.249931 99.282501,41.942299 105.364151,37.901867 
	C105.639999,45.109188 105.255371,51.592545 106.285172,57.842865 
	C107.616341,65.922256 104.759277,70.610703 97.714325,74.502052 
	C89.352646,79.120712 81.679131,84.985222 73.072243,90.734047 
	C72.884254,87.901199 72.754677,85.948685 72.609467,83.540756 
M97.058960,46.544792 
	C90.569054,50.864429 84.038757,55.125561 77.624161,59.554276 
	C76.377983,60.414658 74.762482,61.896420 74.714516,63.145226 
	C74.437325,70.361969 74.579224,77.594803 74.579224,84.627350 
	C76.204491,84.855011 76.615997,85.050499 76.814232,84.920578 
	C85.268456,79.379639 93.734856,73.855614 102.096260,68.177109 
	C102.997368,67.565132 103.792755,66.019341 103.758507,64.934456 
	C103.535393,57.867233 103.069496,50.807671 102.647209,43.091213 
	C100.637451,44.292812 99.131302,45.193310 97.058960,46.544792 
z"/>
<path fill="#E1E6E9" opacity="1.000000" stroke="none" 
	d="
M62.669724,146.826218 
	C64.234009,146.908646 65.382301,146.908646 67.029533,146.908646 
	C67.029533,144.012070 67.029533,141.256744 67.029533,138.243713 
	C69.122322,138.146332 70.732018,138.071411 72.689621,137.980316 
	C72.689621,142.233109 72.689621,146.296783 72.689621,150.913162 
	C69.946365,151.243881 67.207695,151.792923 64.457489,151.858612 
	C59.226299,151.983597 55.031590,149.996231 52.828491,144.968140 
	C50.623127,139.934845 51.842968,132.376450 55.439564,129.124603 
	C59.700527,125.272087 64.794128,124.997566 69.894089,126.776352 
	C70.980194,127.155167 71.343178,129.607254 72.500481,132.095840 
	C66.211349,130.966461 61.135880,128.916290 58.277725,134.817902 
	C56.198547,139.111053 57.928333,143.894516 62.669724,146.826218 
z"/>
<path fill="#E3E8EB" opacity="1.000000" stroke="none" 
	d="
M138.059402,146.610809 
	C138.596817,148.182480 139.039688,149.396973 139.509979,150.686737 
	C134.342728,153.162659 132.877228,149.895416 131.821869,146.185181 
	C128.498367,146.185181 125.362198,146.185181 122.112579,146.185181 
	C121.304123,150.126617 119.746086,152.891846 114.492378,150.617813 
	C117.486328,143.201752 120.229958,135.750854 123.591454,128.590027 
	C124.330879,127.014847 127.264503,126.469688 129.680878,125.188774 
	C132.743179,132.975739 135.354019,139.614700 138.059402,146.610809 
M128.899033,136.782303 
	C128.342804,135.571533 127.786568,134.360764 126.861145,132.346359 
	C125.543335,135.874008 124.597626,138.405563 123.476036,141.407928 
	C126.053261,141.407928 127.939606,141.407928 130.376404,141.407928 
	C129.882874,139.895889 129.498154,138.717255 128.899033,136.782303 
z"/>
<path fill="#F50962" opacity="1.000000" stroke="none" 
	d="
M131.129669,63.687202 
	C130.516541,64.335632 130.034424,64.683540 129.552322,65.031448 
	C129.316895,64.605347 129.061401,64.188980 128.848969,63.751698 
	C124.178993,54.138721 124.179916,54.138271 115.659607,47.983852 
	C124.662422,45.556351 133.125137,43.274475 142.618088,40.714817 
	C138.497910,48.939587 134.879288,56.163136 131.129669,63.687202 
z"/>
<path fill="#DFE4E8" opacity="1.000000" stroke="none" 
	d="
M93.033096,147.921982 
	C88.408104,152.419571 84.013634,153.084518 79.990150,150.207932 
	C76.305336,147.573471 74.936058,142.174637 76.811279,137.674164 
	C78.565308,133.464539 82.769302,131.242294 87.323822,132.117233 
	C93.802750,133.361816 96.343460,140.033463 93.033096,147.921982 
M81.599419,142.395554 
	C81.992271,144.968918 82.749512,147.861633 85.937492,146.824448 
	C87.399147,146.348938 88.817696,143.449142 88.864326,141.613373 
	C88.904404,140.035904 87.239616,137.380676 85.847115,137.009674 
	C82.630676,136.152786 81.854965,138.883682 81.599419,142.395554 
z"/>
<path fill="#DCE1E5" opacity="1.000000" stroke="none" 
	d="
M102.559479,137.339813 
	C103.325409,139.520157 103.955208,141.326416 104.646553,143.309174 
	C108.899178,140.327454 105.097908,131.385513 114.807007,132.577103 
	C112.363991,138.724304 110.461624,144.645828 107.635498,150.087601 
	C106.433380,152.402298 103.259361,152.646744 101.850258,149.400192 
	C99.559540,144.122452 97.535988,138.728729 95.383812,133.344254 
	C100.964958,131.654999 101.001068,131.676147 102.559479,137.339813 
z"/>
<path fill="#D8DEE2" opacity="1.000000" stroke="none" 
	d="
M147.906540,141.932190 
	C147.906540,145.203079 147.906540,147.988754 147.906540,151.175888 
	C146.031387,151.273651 144.458084,151.355682 142.495270,151.458008 
	C142.495270,142.960617 142.495270,134.831680 142.495270,126.445221 
	C144.256409,126.445221 145.813934,126.445221 147.906540,126.445221 
	C147.906540,131.609253 147.906540,136.528091 147.906540,141.932190 
z"/>
<path fill="#1E3248" opacity="1.000000" stroke="none" 
	d="
M97.342056,46.319298 
	C99.131302,45.193310 100.637451,44.292812 102.647209,43.091213 
	C103.069496,50.807671 103.535393,57.867233 103.758507,64.934456 
	C103.792755,66.019341 102.997368,67.565132 102.096260,68.177109 
	C93.734856,73.855614 85.268456,79.379639 76.814232,84.920578 
	C76.615997,85.050499 76.204491,84.855011 74.579224,84.627350 
	C74.579224,77.594803 74.437325,70.361969 74.714516,63.145226 
	C74.762482,61.896420 76.377983,60.414658 77.624161,59.554276 
	C84.038757,55.125561 90.569054,50.864429 97.342056,46.319298 
M88.127747,68.814369 
	C88.396011,69.851715 88.664276,70.889061 88.948990,71.989990 
	C94.770752,69.301872 94.857605,69.148277 93.446823,65.184265 
	C91.586143,65.423431 89.819000,65.650574 88.163376,65.038551 
	C88.064636,63.330456 87.965904,61.622364 87.855942,59.720093 
	C78.140892,64.088783 76.962456,66.108688 79.727753,73.216331 
	C82.499077,71.496315 85.234497,69.798584 88.127747,68.814369 
M94.122581,62.043762 
	C98.702133,62.375660 100.165619,60.588459 98.177399,54.807659 
	C96.795151,56.967121 95.412903,59.126583 94.122581,62.043762 
z"/>
<path fill="#344F60" opacity="1.000000" stroke="none" 
	d="
M129.006226,137.160461 
	C129.498154,138.717255 129.882874,139.895889 130.376404,141.407928 
	C127.939606,141.407928 126.053261,141.407928 123.476036,141.407928 
	C124.597626,138.405563 125.543335,135.874008 126.861145,132.346359 
	C127.786568,134.360764 128.342804,135.571533 129.006226,137.160461 
z"/>
<path fill="#1D3C4E" opacity="1.000000" stroke="none" 
	d="
M81.596222,141.962830 
	C81.854965,138.883682 82.630676,136.152786 85.847115,137.009674 
	C87.239616,137.380676 88.904404,140.035904 88.864326,141.613373 
	C88.817696,143.449142 87.399147,146.348938 85.937492,146.824448 
	C82.749512,147.861633 81.992271,144.968918 81.596222,141.962830 
z"/>
<path fill="#EE0A61" opacity="1.000000" stroke="none" 
	d="
M87.969910,68.100853 
	C85.234497,69.798584 82.499077,71.496315 79.727753,73.216331 
	C76.962456,66.108688 78.140892,64.088783 87.855942,59.720093 
	C87.965904,61.622364 88.064636,63.330456 88.078949,65.828064 
	C87.986320,67.112000 87.978119,67.606422 87.969910,68.100853 
z"/>
<path fill="#E10D5F" opacity="1.000000" stroke="none" 
	d="
M88.048828,68.457611 
	C87.978119,67.606422 87.986320,67.112000 88.023186,66.247635 
	C89.819000,65.650574 91.586143,65.423431 93.446823,65.184265 
	C94.857605,69.148277 94.770752,69.301872 88.948990,71.989990 
	C88.664276,70.889061 88.396011,69.851715 88.048828,68.457611 
z"/>
<path fill="#E00D5F" opacity="1.000000" stroke="none" 
	d="
M94.076614,61.664902 
	C95.412903,59.126583 96.795151,56.967121 98.177399,54.807659 
	C100.165619,60.588459 98.702133,62.375660 94.076614,61.664902 
z"/>
</svg>